<?xml version="1.0" encoding="UTF-8"?>
<!DOCTYPE svg PUBLIC "-//W3C//DTD SVG 1.1//EN" "http://www.w3.org/Graphics/SVG/1.1/DTD/svg11.dtd">
<!-- Creator: CorelDRAW Home & Student X8 -->
<?xml-stylesheet href="logo-bg.css" type="text/css"?>
<svg xmlns="http://www.w3.org/2000/svg" xml:space="preserve" width="1200px" height="1200px" version="1.1" style="shape-rendering:geometricPrecision; text-rendering:geometricPrecision; image-rendering:optimizeQuality; fill-rule:evenodd; clip-rule:evenodd"
viewBox="0 0 1200 1200"
 xmlns:xlink="http://www.w3.org/1999/xlink">
 <g id="Warstwa_x0020_2">
  <metadata id="CorelCorpID_0Corel-Layer"/>
  <polygon id="LogoBg" class="fil0" points="382,728 882,728 882,228 382,228 "/>
 </g>
 <g id="Warstwa_x0020_1">
  <metadata id="CorelCorpID_1Corel-Layer"/>
  <path id="LogoShape--Cloud" class="fil0" d="M610 382c-25,-1 -43,7 -44,32 -35,4 -36,56 6,56 38,-1 77,0 115,0 38,0 74,6 85,-29 5,-17 0,-33 -9,-43 -12,-12 -21,-14 -42,-12 -10,-15 -8,-17 -20,-27 -20,-16 -50,-16 -70,-2 -13,9 -12,12 -21,25z"/>
  <path id="LogoText--Good" class="fil1" d="M637 413l-8 0 0 -27c0,0 0,0 0,-1 0,0 0,-1 0,-1 0,-1 -1,-1 -1,-1 -1,0 -2,0 -2,0 -1,0 -2,0 -3,0 0,0 0,0 -1,1 0,0 0,1 0,1 0,1 0,1 0,1l0 69c0,1 0,1 0,2 0,0 0,1 0,1 1,1 1,1 1,1 1,1 2,1 3,1 1,0 1,0 2,-1 0,0 1,0 1,-1 0,0 0,-1 0,-1 0,-1 0,-1 0,-2l0 -31 -2 0 0 -5 10 0 0 36c0,1 0,1 -1,2 0,1 0,2 -1,4 0,1 -2,2 -3,2 -1,1 -4,2 -6,2 -3,0 -5,-1 -7,-2 -1,0 -2,-1 -3,-2 -1,-2 -1,-3 -1,-4 0,-1 -1,-1 -1,-2l0 -69c0,0 0,0 1,-1 0,0 0,-1 0,-2 0,0 0,-1 1,-1 0,-1 1,-2 2,-2 1,-1 2,-1 3,-2 1,0 3,0 5,0 1,0 3,0 4,0 2,1 3,1 3,2 1,0 2,1 2,2 1,0 1,1 1,1 0,1 1,2 1,2 0,1 0,1 0,1l0 27zm29 43c0,1 0,3 -1,4 0,1 -1,1 -2,2 -1,1 -2,1 -4,1 -1,1 -2,1 -3,1 -2,0 -3,0 -5,-1 -1,0 -2,0 -3,-1 -1,-1 -2,-2 -3,-3 -1,-1 -1,-2 -1,-3l0 -61c0,-1 0,-2 1,-3 1,-1 2,-2 3,-3 1,0 2,-1 3,-1 2,-1 3,-1 5,-1 1,0 2,0 4,1 1,0 2,0 3,1 1,1 2,2 2,3 1,1 1,2 1,3l0 61zm-7 -61c0,-1 -1,-2 -1,-2 -1,-1 -2,-1 -2,-1 -1,0 -1,0 -2,0 0,0 -1,1 -1,1 -1,0 -1,0 -1,1 0,0 -1,1 -1,1l0 61c0,1 1,1 1,1 0,1 0,1 1,1 0,1 1,1 1,1 1,0 1,0 2,0 0,0 1,0 2,-1 0,0 1,-1 1,-2l0 -61zm37 61c0,1 -1,3 -1,4 -1,1 -2,1 -3,2 -1,1 -2,1 -3,1 -1,1 -3,1 -4,1 -1,0 -3,0 -4,-1 -2,0 -3,0 -4,-1 -1,-1 -2,-2 -3,-3 0,-1 -1,-2 -1,-3l0 -61c0,-1 1,-2 1,-3 1,-1 2,-2 3,-3 1,0 2,-1 4,-1 1,-1 3,-1 4,-1 1,0 3,0 4,1 1,0 2,0 3,1 1,1 2,2 3,3 0,1 1,2 1,3l0 61zm-8 -61c0,-1 0,-2 -1,-2 0,-1 -1,-1 -2,-1 0,0 -1,0 -1,0 -1,0 -1,1 -2,1 0,0 0,0 -1,1 0,0 0,1 0,1l0 61c0,1 0,1 0,1 1,1 1,1 1,1 1,1 1,1 2,1 0,0 1,0 1,0 1,0 2,0 2,-1 1,0 1,-1 1,-2l0 -61zm30 -1c0,0 -1,-1 -1,-1 -1,0 -3,0 -7,0l0 65c4,0 6,0 7,0 0,0 1,-1 1,-1l0 -63zm7 62c0,2 0,3 -1,4 -1,1 -2,2 -4,2 -1,0 -1,1 -3,1 -1,0 -2,0 -4,0 -2,0 -4,0 -5,0l-5 0 0 -75c2,0 3,0 5,0 1,0 3,0 5,0 3,0 6,0 7,1 2,0 3,1 4,2 1,0 1,2 1,3l0 62z"/>
  <path id="LogoText--In" class="fil1" d="M589 418l0 44 -5 0 0 -44 5 0zm19 44l-3 0 -7 -26 0 26 -4 0 0 -44 4 0 6 26 0 -26 4 0 0 44z"/>
  <path id="LogoText--Atmosphere" class="fil1" d="M513 557l-8 0 -1 -21 -6 0 -1 21 -8 0 6 -87 12 0 6 87zm-10 -45l-2 -39 -2 39 -1 19 6 0 -1 -19zm36 -32l0 5 -8 0 0 72 -8 0 0 -72 -7 0 0 -5 23 0zm25 0l7 0 0 77 -6 0 0 -47 -6 44 -3 0 -5 -44 0 47 -7 0 0 -77 7 0 7 46 6 -46zm39 70c0,1 0,2 -1,3 -1,1 -2,2 -3,3 -1,0 -2,1 -3,1 -2,1 -3,1 -4,1 -2,0 -3,0 -5,-1 -1,0 -3,-1 -4,-1 -1,-1 -2,-2 -3,-3 0,-1 -1,-2 -1,-3l0 -63c0,-1 1,-3 1,-4 1,0 2,-1 3,-2 1,-1 3,-1 4,-2 2,0 3,0 5,0 1,0 2,0 4,0 1,1 2,1 3,2 1,1 2,1 3,2 1,1 1,3 1,4l0 63zm-8 -63c0,-1 0,-2 -1,-2 -1,-1 -1,-1 -2,-1 -1,0 -1,0 -2,0 0,0 -1,0 -1,1 -1,0 -1,0 -1,1 -1,0 -1,0 -1,1l0 63c0,0 0,1 1,1 0,0 0,1 1,1 0,0 1,1 1,1 1,0 1,0 2,0 0,0 1,0 2,-1 1,0 1,-1 1,-2l0 -63zm37 20l-8 0 0 -20c0,-1 0,-2 0,-3 -1,0 -2,0 -2,0 -1,0 -2,0 -3,0 0,1 0,2 0,3 0,3 0,7 0,10 1,3 1,6 2,8 0,3 1,5 2,7 1,2 2,4 2,6 1,1 2,3 3,5 0,1 1,4 2,6 1,3 1,6 2,9 0,3 0,7 0,12 0,1 0,2 -1,3 0,1 -1,2 -2,3 -1,0 -2,1 -4,1 -1,1 -2,1 -3,1 -2,0 -3,0 -4,-1 -2,0 -3,-1 -4,-1 -1,-1 -2,-2 -2,-3 -1,-1 -1,-2 -1,-3l0 -20 8 0 0 20c0,1 0,2 0,2 1,1 2,1 3,1 0,0 1,0 2,-1 0,0 0,-1 0,-2 0,-5 0,-9 0,-12 -1,-3 -1,-6 -2,-8 -1,-3 -2,-5 -3,-7 -1,-2 -1,-4 -2,-5 -1,-2 -2,-4 -2,-5 -1,-2 -2,-5 -3,-7 0,-3 -1,-5 -1,-9 0,-3 0,-6 0,-10 0,-2 0,-3 1,-4 0,-1 1,-2 2,-2 1,-1 2,-1 4,-2 1,0 2,0 4,0 1,0 2,0 3,0 2,1 3,1 4,2 1,0 2,1 2,2 1,1 1,2 1,4l0 20zm32 6c0,2 -1,4 -2,5 -1,1 -2,2 -3,2 -2,1 -3,1 -5,1 -2,0 -4,0 -6,0l0 36 -8 0 0 -77 10 0c3,0 6,0 8,0 2,1 3,2 4,2 1,1 1,2 1,3 1,1 1,2 1,3l0 25zm-8 -25c0,-1 0,-2 -1,-2 0,-1 0,-1 -1,-1 -1,0 -1,0 -2,0 -1,0 -3,0 -4,0l0 32c1,0 2,0 3,0 1,-1 2,-1 2,-1 1,0 2,-1 2,-1 1,-1 1,-2 1,-3l0 -24zm29 -8l8 0 0 77 -8 0 0 -38 -8 0 0 38 -8 0 0 -77 8 0 0 35 8 0 0 -35zm32 5l-8 0 0 28 8 0 0 5 -8 0 0 34 8 0 0 5 -16 0 0 -77 16 0 0 5zm27 27c0,1 0,3 -1,4 -1,0 -3,1 -5,1 2,1 4,2 5,2 1,1 1,2 1,4l0 34 -8 0 0 -34c0,-1 0,-1 0,-2 0,0 -1,-1 -1,-1 -1,0 -1,0 -2,0 -1,0 -2,0 -3,0l0 37 -8 0 0 -77 9 0c3,0 5,0 7,0 2,1 4,1 5,2 1,1 1,2 1,4l0 26zm-8 -24c0,-1 0,-2 0,-2 0,-1 -1,-1 -1,-1 -1,0 -1,0 -2,0 -1,0 -2,0 -3,0l0 30c1,0 2,0 3,0 1,0 1,0 2,0 0,-1 1,-1 1,-1 0,-1 0,-1 0,-2l0 -24zm32 -3l-8 0 0 28 8 0 0 5 -8 0 0 34 8 0 0 5 -16 0 0 -77 16 0 0 5z"/>
 </g>
</svg>
