<?xml version="1.0" encoding="UTF-8"?>
<!DOCTYPE svg PUBLIC "-//W3C//DTD SVG 1.1//EN" "http://www.w3.org/Graphics/SVG/1.1/DTD/svg11.dtd">
<!-- Creator: CorelDRAW Home & Student X8 -->
<?xml-stylesheet href="8564-logo v2 inline-430d37d1-338f-49a8-893b-f9fad4767b1c.css" type="text/css"?>
<svg xmlns="http://www.w3.org/2000/svg" xml:space="preserve" width="100%" height="100%" version="1.1" style="shape-rendering:geometricPrecision; text-rendering:geometricPrecision; image-rendering:optimizeQuality; fill-rule:evenodd; clip-rule:evenodd"
viewBox="0 0 115358 35278"
 xmlns:xlink="http://www.w3.org/1999/xlink">
 <g id="Warstwa_x0020_1">
  <metadata id="CorelCorpID_0Corel-Layer"/>
  <path id="LogoShape--Cloud" class="fil0" d="M15634 15511c-5450,-344 -9366,1456 -9498,7118 -7726,846 -8097,12303 1349,12197 8361,-79 16775,0 25135,0 8599,0 16378,1402 18839,-6350 1190,-3704 0,-7276 -2064,-9393 -2593,-2646 -4551,-3228 -9287,-2778 -1984,-3175 -1614,-3625 -4313,-5900 -4286,-3625 -10927,-3598 -15478,-503 -2831,1932 -2645,2805 -4683,5609l0 0z"/>
  <path id="LogoText--Good" class="fil1" d="M21614 22285l-1614 0 0 -5848c0,-79 -27,-185 -27,-291 0,-105 -26,-185 -79,-264 -53,-80 -132,-159 -238,-212 -132,-53 -265,-79 -476,-79 -212,0 -344,26 -477,79 -105,53 -185,132 -238,212 -26,79 -79,159 -79,264 0,106 0,212 0,291l0 15161c0,106 0,212 0,318 0,105 53,238 79,344 53,105 133,185 238,264 133,80 291,132 477,132 211,0 370,-52 476,-132 106,-79 185,-159 238,-264 53,-106 79,-212 79,-344 0,-106 27,-212 27,-318l0 -6879 -397 0 0 -1032 2011 0 0 7938c0,79 0,238 -27,449 -26,238 -105,477 -264,715 -159,211 -397,450 -715,608 -344,185 -820,291 -1428,291 -609,0 -1085,-106 -1403,-291 -344,-185 -582,-397 -740,-608 -159,-238 -239,-477 -265,-715 -27,-211 -27,-370 -27,-476l0 -15161c0,-52 0,-158 0,-264 0,-106 27,-238 80,-397 26,-132 106,-265 212,-423 105,-133 238,-265 423,-397 185,-132 423,-212 688,-291 291,-80 635,-133 1032,-133 423,0 767,53 1032,133 291,79 502,159 687,291 186,106 318,264 424,397 106,158 185,291 211,423 53,159 80,291 80,397 0,106 0,212 0,264l0 5848 0 0zm6509 9498c0,291 -53,556 -186,768 -132,238 -317,423 -529,555 -211,133 -476,265 -767,318 -265,79 -556,106 -847,106 -317,0 -635,-27 -926,-106 -317,-80 -582,-185 -820,-344 -238,-159 -423,-344 -582,-556 -159,-212 -238,-476 -238,-741l0 -13467c0,-265 79,-503 238,-714 159,-212 344,-397 582,-530 238,-158 503,-264 820,-343 318,-80 609,-106 926,-106 318,0 582,26 873,106 291,52 530,158 741,317 212,132 397,318 529,529 133,212 186,450 186,741l0 13467 0 0zm-1641 -13441c0,-264 -53,-423 -185,-529 -159,-106 -318,-158 -503,-158 -106,0 -211,26 -317,52 -106,27 -212,80 -291,133 -106,79 -159,132 -212,211 -79,106 -106,186 -106,291l0 13468c0,106 27,185 106,291 53,79 106,159 212,211 79,53 185,106 291,133 106,26 211,53 317,53 185,0 344,-53 476,-159 159,-106 212,-291 212,-529l0 -13468zm8149 13441c0,291 -53,556 -185,768 -132,238 -317,423 -529,555 -212,133 -476,265 -767,318 -265,79 -556,106 -847,106 -318,0 -635,-27 -926,-106 -318,-80 -582,-185 -820,-344 -238,-159 -450,-344 -582,-556 -159,-212 -238,-476 -238,-741l0 -13467c0,-265 79,-503 238,-714 132,-212 344,-397 582,-530 238,-158 502,-264 820,-343 291,-80 608,-106 926,-106 291,0 582,26 873,106 291,52 529,158 741,317 212,132 397,318 529,529 132,212 185,450 185,741l0 13467 0 0zm-1640 -13441c0,-264 -53,-423 -212,-529 -132,-106 -291,-158 -476,-158 -106,0 -212,26 -318,52 -105,27 -211,80 -317,133 -79,79 -159,132 -212,211 -53,106 -79,186 -79,291l0 13468c0,106 26,185 79,291 53,79 133,159 212,211 106,53 212,106 291,133 106,26 238,53 344,53 185,0 344,-53 476,-159 159,-106 212,-291 212,-529l0 -13468zm6509 -185c0,-132 -80,-238 -212,-264 -159,-27 -609,-53 -1402,-53l0 14446c793,0 1243,-26 1402,-53 132,-53 212,-132 212,-264l0 -13812zm1640 13732c0,371 -79,635 -265,847 -185,185 -449,344 -820,423 -158,53 -370,80 -608,106 -265,26 -609,53 -1032,53 -423,26 -820,26 -1138,26l-1032 0 0 -16563c344,0 715,0 1059,0 344,0 714,0 1084,27 741,0 1297,53 1641,132 370,80 635,212 846,424 186,185 265,449 265,793l0 13732 0 0z"/>
  <path id="LogoText--In" class="fil1" d="M11110 23317l0 9710 -1058 0 0 -9710 1058 0zm4260 9710l-768 0 -1455 -5715 0 5715 -899 0 0 -9710 793 0 1429 5715 0 -5715 900 0 0 9710z"/>
  <path id="LogoText--Atmosphere" class="fil2" d="M58631 33003l-1746 0 -212 -4603 -1270 0 -211 4603 -1747 0 1297 -19129 2593 0 1296 19129zm-2169 -9921l-424 -8520 -423 8520 -212 4259 1270 0 -211 -4259zm7990 -7091l0 1085 -1720 0 0 15927 -1746 0 0 -15927 -1720 0 0 -1085 5186 0zm5609 0l1508 0 0 17012 -1508 0 0 -10265 -1164 9578 -688 0 -1191 -9578 0 10265 -1481 0 0 -17012 1508 0 1508 10292 1508 -10292zm8467 15425c0,317 -80,582 -212,820 -132,212 -317,397 -555,556 -239,132 -503,238 -821,317 -291,80 -582,106 -899,106 -344,0 -662,-26 -1006,-106 -317,-79 -608,-211 -846,-344 -265,-158 -477,-344 -635,-582 -159,-211 -238,-476 -238,-767l0 -13838c0,-264 79,-529 238,-741 158,-211 370,-396 635,-555 238,-132 529,-238 873,-318 317,-79 661,-132 979,-132 317,0 635,53 926,106 291,79 555,185 794,317 238,159 423,344 555,556 132,238 212,476 212,767l0 13838 0 0zm-1746 -13811c0,-265 -80,-424 -212,-529 -159,-106 -318,-159 -529,-159 -106,0 -238,0 -344,26 -106,53 -212,106 -318,159 -79,53 -158,132 -238,212 -53,106 -79,185 -79,291l0 13837c0,106 26,212 79,291 80,106 159,159 238,239 106,53 212,105 318,132 106,26 211,53 344,53 185,0 370,-53 502,-159 159,-106 239,-291 239,-556l0 -13837zm8255 4392l-1747 0 0 -4419c0,-264 -79,-450 -211,-529 -133,-106 -291,-159 -450,-159 -159,0 -318,53 -450,159 -132,79 -185,265 -185,556 0,767 26,1508 132,2169 80,662 185,1270 344,1852 132,556 318,1059 503,1509 185,449 370,873 529,1270 159,317 291,661 476,1058 159,397 318,873 477,1429 158,555 317,1217 423,1958 106,740 159,1587 159,2566 0,317 -80,582 -212,820 -132,212 -318,397 -529,529 -238,159 -503,265 -794,318 -265,79 -556,106 -873,106 -291,0 -582,-27 -873,-106 -291,-53 -529,-159 -768,-318 -211,-132 -396,-317 -555,-529 -132,-238 -185,-503 -185,-820l0 -4419 1746 0 0 4419c0,265 53,450 185,556 132,105 291,158 450,158 159,0 317,-53 450,-158 132,-106 211,-291 211,-556 0,-953 -53,-1799 -185,-2514 -106,-714 -238,-1349 -423,-1905 -185,-529 -344,-1031 -556,-1455 -159,-423 -344,-794 -503,-1137 -132,-344 -317,-741 -502,-1165 -185,-423 -344,-926 -476,-1481 -133,-556 -212,-1164 -292,-1852 -79,-688 -105,-1456 -105,-2329 0,-291 53,-555 185,-793 159,-212 344,-397 555,-530 239,-158 477,-264 768,-344 291,-53 582,-105 873,-105 317,0 608,52 873,105 291,80 556,186 794,344 211,133 397,318 529,530 132,238 212,502 212,793l0 4419zm6905 1429c0,449 -106,793 -291,1031 -211,239 -476,424 -794,530 -317,105 -687,185 -1111,185 -423,26 -846,26 -1270,26l0 7805 -1746 0 0 -17012 2170 0c767,0 1349,79 1772,185 397,106 715,265 900,450 185,159 291,370 317,555 27,212 53,424 53,582l0 5663 0 0zm-1746 -5663c0,-158 -26,-317 -106,-396 -53,-106 -132,-159 -264,-212 -133,-53 -318,-79 -530,-79 -238,0 -502,0 -820,0l0 7064c212,0 424,0 635,-27 185,0 371,-52 556,-105 159,-80 291,-159 370,-318 106,-132 159,-344 159,-608l0 -5319 0 0zm6482 -1772l1747 0 0 17012 -1747 0 0 -8255 -1719 0 0 8255 -1747 0 0 -17012 1747 0 0 7699 1719 0 0 -7699zm6932 1085l-1719 0 0 6350 1719 0 0 1084 -1719 0 0 7435 1719 0 0 1058 -3466 0 0 -17012 3466 0 0 1085 0 0zm6086 6006c0,370 -132,635 -344,820 -212,211 -529,344 -979,423 450,80 767,238 979,423 212,186 344,477 344,821l0 7434 -1746 0 0 -7434c0,-186 -27,-318 -106,-397 -27,-106 -133,-185 -238,-212 -106,-53 -239,-79 -397,-79 -159,0 -344,-27 -582,-27l0 8149 -1720 0 0 -17012 1958 0c582,0 1085,53 1508,132 423,79 741,212 979,397 212,212 344,503 344,899l0 5663 0 0zm-1746 -5319c0,-158 -27,-291 -106,-396 -27,-106 -133,-159 -238,-212 -106,-53 -239,-79 -397,-79 -159,0 -344,0 -582,0l0 6720c238,0 423,0 582,0 158,-26 291,-53 397,-79 105,-53 211,-133 238,-212 79,-106 106,-238 106,-423l0 -5319 0 0zm6879 -687l-1694 0 0 6350 1694 0 0 1084 -1694 0 0 7435 1694 0 0 1058 -3440 0 0 -17012 3440 0 0 1085 0 0z"/>
 </g>
</svg>
