<?xml version="1.0" encoding="UTF-8"?>
<!DOCTYPE svg PUBLIC "-//W3C//DTD SVG 1.1//EN" "http://www.w3.org/Graphics/SVG/1.1/DTD/svg11.dtd">
<!-- Creator: CorelDRAW Home & Student X8 -->
<?xml-stylesheet href="logo v2.css" type="text/css"?>
<svg xmlns="http://www.w3.org/2000/svg" xml:space="preserve" width="1800px" height="1350px" version="1.1" style="shape-rendering:geometricPrecision; text-rendering:geometricPrecision; image-rendering:optimizeQuality; fill-rule:evenodd; clip-rule:evenodd"
viewBox="0 0 1800 1350"
 xmlns:xlink="http://www.w3.org/1999/xlink">
 <g id="Warstwa_x0020_1">
  <metadata id="CorelCorpID_0Corel-Layer"/>
  <path id="LogoShape--Cloud" class="fil0" d="M762 243c-154,-10 -265,41 -269,201 -219,24 -229,349 38,346 237,-2 476,0 713,0 244,0 464,40 534,-180 34,-105 0,-206 -59,-266 -73,-75 -129,-92 -263,-79 -56,-90 -46,-103 -122,-167 -122,-103 -310,-102 -439,-14 -80,54 -75,79 -133,159l0 0z"/>
  <path id="LogoText--Good" class="fil1" d="M932 435l-46 0 0 -166c0,-2 -1,-5 -1,-8 0,-3 0,-6 -2,-8 -2,-2 -4,-4 -7,-6 -4,-1 -7,-2 -13,-2 -6,0 -10,1 -14,2 -3,2 -5,4 -7,6 0,2 -2,5 -2,8 0,3 0,6 0,8l0 430c0,3 0,6 0,9 0,3 2,6 2,9 2,3 4,6 7,8 4,2 8,4 14,4 6,0 10,-2 13,-4 3,-2 5,-5 7,-8 2,-3 2,-6 2,-9 0,-3 1,-6 1,-9l0 -195 -11 0 0 -30 57 0 0 225c0,3 0,7 -1,13 -1,7 -3,14 -7,20 -5,6 -12,13 -21,18 -10,5 -23,8 -40,8 -18,0 -31,-3 -40,-8 -10,-6 -16,-12 -21,-18 -4,-6 -7,-13 -7,-20 -1,-6 -1,-10 -1,-13l0 -430c0,-2 0,-5 0,-8 0,-3 1,-6 2,-11 1,-4 3,-7 6,-12 3,-4 7,-7 12,-11 5,-4 12,-6 20,-8 8,-3 18,-4 29,-4 12,0 22,1 29,4 8,2 14,4 20,8 5,3 9,7 12,11 3,5 5,8 6,12 1,5 2,8 2,11 0,3 0,6 0,8l0 166 0 0zm184 269c0,8 -1,16 -5,22 -4,6 -9,12 -15,15 -6,4 -13,8 -22,9 -7,3 -15,3 -24,3 -9,0 -18,0 -26,-3 -9,-2 -16,-5 -23,-9 -7,-5 -12,-10 -17,-16 -4,-6 -6,-14 -6,-21l0 -382c0,-7 2,-14 6,-20 5,-6 10,-11 17,-15 7,-5 14,-8 23,-10 9,-2 17,-3 26,-3 9,0 17,1 25,3 8,2 15,5 21,9 6,4 11,9 15,15 4,6 5,13 5,21l0 382 0 0zm-46 -381c0,-8 -2,-12 -5,-15 -5,-3 -9,-5 -15,-5 -3,0 -6,1 -9,2 -3,1 -6,2 -8,4 -3,2 -4,3 -6,6 -2,3 -3,5 -3,8l0 382c0,3 1,5 3,8 2,2 3,4 6,6 2,1 5,3 8,4 3,0 6,1 9,1 6,0 10,-1 14,-4 4,-3 6,-9 6,-15l0 -382zm231 381c0,8 -2,16 -5,22 -4,6 -9,12 -15,15 -6,4 -14,8 -22,9 -8,3 -16,3 -24,3 -9,0 -18,0 -26,-3 -9,-2 -17,-5 -24,-9 -6,-5 -12,-10 -16,-16 -5,-6 -7,-14 -7,-21l0 -382c0,-7 2,-14 7,-20 4,-6 10,-11 16,-15 7,-5 15,-8 24,-10 8,-2 17,-3 26,-3 8,0 16,1 25,3 8,2 15,5 21,9 6,4 11,9 15,15 3,6 5,13 5,21l0 382 0 0zm-47 -381c0,-8 -1,-12 -6,-15 -3,-3 -8,-5 -13,-5 -3,0 -6,1 -9,2 -3,1 -6,2 -9,4 -2,2 -5,3 -6,6 -2,3 -2,5 -2,8l0 382c0,3 0,5 2,8 1,2 4,4 6,6 3,1 6,3 8,4 3,0 7,1 10,1 5,0 10,-1 13,-4 5,-3 6,-9 6,-15l0 -382zm185 -5c0,-4 -2,-7 -6,-8 -5,-1 -17,-1 -40,-1l0 409c23,0 35,-1 40,-1 4,-2 6,-4 6,-8l0 -391zm46 389c0,10 -2,18 -7,24 -5,5 -13,10 -23,12 -5,1 -11,2 -18,3 -7,1 -17,1 -29,1 -12,1 -23,1 -32,1l-29 0 0 -469c9,0 20,0 30,0 9,0 20,0 30,0 21,0 37,2 47,4 10,2 18,6 24,12 5,5 7,13 7,23l0 389 0 0z"/>
  <path id="LogoText--In" class="fil1" d="M634 464l0 275 -30 0 0 -275 30 0zm121 275l-22 0 -41 -162 0 162 -26 0 0 -275 23 0 40 162 0 -162 26 0 0 275z"/>
  <path id="LogoText--Atmosphere" class="fil2" d="M157 1334l-49 0 -7 -131 -36 0 -6 131 -49 0 37 -542 73 0 37 542zm-61 -281l-12 -242 -12 242 -6 120 36 0 -6 -120zm226 -201l0 30 -49 0 0 452 -49 0 0 -452 -49 0 0 -30 147 0zm159 0l43 0 0 482 -43 0 0 -291 -33 271 -20 0 -33 -271 0 291 -42 0 0 -482 42 0 43 291 43 -291zm240 437c0,9 -2,16 -6,23 -4,6 -9,11 -16,16 -7,4 -14,7 -23,9 -8,2 -16,3 -25,3 -10,0 -19,-1 -29,-3 -9,-2 -17,-6 -24,-10 -8,-4 -14,-10 -18,-16 -5,-6 -7,-14 -7,-22l0 -392c0,-8 2,-15 7,-21 4,-6 10,-12 18,-16 7,-4 15,-7 25,-9 9,-2 19,-4 28,-4 9,0 18,2 26,3 8,2 16,5 22,9 7,5 12,10 16,16 4,7 6,13 6,22l0 392 0 0zm-49 -392c0,-7 -3,-12 -6,-15 -5,-3 -9,-4 -15,-4 -3,0 -7,0 -10,1 -3,1 -6,3 -9,4 -3,2 -5,4 -7,6 -2,3 -2,5 -2,8l0 393c0,3 0,6 2,8 2,3 4,4 7,7 3,1 6,3 9,3 3,1 6,2 10,2 5,0 10,-2 14,-5 4,-3 7,-8 7,-15l0 -393zm234 125l-50 0 0 -125c0,-8 -2,-13 -6,-15 -4,-3 -8,-5 -13,-5 -4,0 -9,2 -12,5 -4,2 -6,7 -6,15 0,22 1,43 4,62 2,19 5,36 10,52 4,16 9,30 14,43 5,13 11,25 15,36 5,9 8,19 14,30 4,11 9,25 13,41 5,15 9,34 12,55 3,21 5,45 5,73 0,9 -3,16 -6,23 -4,6 -9,11 -15,15 -7,5 -15,8 -23,9 -7,2 -16,3 -25,3 -8,0 -16,-1 -25,-3 -8,-1 -15,-4 -21,-9 -6,-4 -12,-9 -16,-15 -4,-7 -5,-14 -5,-23l0 -125 49 0 0 125c0,7 2,13 5,16 4,3 9,4 13,4 5,0 9,-1 13,-4 4,-3 6,-9 6,-16 0,-27 -2,-51 -5,-71 -3,-21 -7,-39 -12,-54 -6,-15 -10,-30 -16,-42 -5,-12 -10,-22 -14,-32 -4,-10 -9,-21 -15,-33 -5,-12 -9,-26 -13,-42 -4,-16 -6,-33 -8,-52 -3,-20 -3,-42 -3,-66 0,-9 1,-16 5,-23 4,-6 10,-11 16,-15 7,-4 13,-7 21,-10 9,-1 17,-3 25,-3 9,0 17,2 25,3 8,3 16,6 23,10 6,4 11,9 15,15 3,7 6,14 6,23l0 125zm195 40c0,13 -3,23 -8,30 -6,6 -13,12 -22,15 -9,3 -20,5 -32,5 -12,1 -24,1 -36,1l0 221 -49 0 0 -482 61 0c22,0 38,2 50,5 12,3 21,7 26,13 5,4 8,10 9,15 1,7 1,12 1,17l0 160 0 0zm-49 -160c0,-5 -1,-9 -3,-11 -2,-3 -4,-5 -8,-6 -3,-2 -9,-3 -15,-3 -6,0 -14,0 -23,0l0 201c6,0 12,0 18,-1 5,0 11,-2 16,-3 4,-2 8,-5 10,-9 3,-4 5,-10 5,-17l0 -151 0 0zm184 -50l49 0 0 482 -49 0 0 -234 -49 0 0 234 -50 0 0 -482 50 0 0 218 49 0 0 -218zm196 30l-49 0 0 180 49 0 0 31 -49 0 0 211 49 0 0 30 -98 0 0 -482 98 0 0 30 0 0zm173 171c0,10 -4,18 -10,23 -6,6 -15,10 -28,12 13,2 22,7 28,12 6,5 10,13 10,23l0 211 -50 0 0 -211c0,-5 -1,-9 -3,-11 -1,-3 -4,-5 -7,-6 -3,-2 -6,-2 -11,-2 -4,0 -10,-1 -16,-1l0 231 -49 0 0 -482 55 0c17,0 31,1 43,3 12,3 21,6 28,12 6,6 10,14 10,25l0 161 0 0zm-50 -151c0,-5 -1,-8 -3,-11 -1,-3 -4,-5 -7,-6 -3,-2 -6,-3 -11,-3 -4,0 -10,0 -16,0l0 191c6,0 12,0 16,0 5,-1 8,-2 11,-2 3,-2 6,-4 7,-6 2,-3 3,-7 3,-12l0 -151 0 0zm195 -20l-48 0 0 180 48 0 0 31 -48 0 0 211 48 0 0 30 -97 0 0 -482 97 0 0 30 0 0z"/>
 </g>
</svg>
